Normalized EMG Linear Envelopes
nRows=227
nColumns=4

endheader
time	 med_gas_r	  soleus_r	 tib_ant_r	
2.22883	  0.002897	  0.005006	  0.001579	
2.2621	  0.002914	  0.004917	  0.001548	
2.29536	  0.002933	  0.004853	  0.001526	
2.32863	  0.002957	  0.004830	  0.001519	
2.3619	  0.002978	  0.004848	  0.001525	
2.39516	  0.002982	  0.004897	  0.001538	
2.42843	  0.002960	  0.004965	  0.001551	
2.46169	  0.002909	  0.005039	  0.001555	
2.49496	  0.002843	  0.005106	  0.001550	
2.52823	  0.002778	  0.005155	  0.001535	
2.56149	  0.002735	  0.005171	  0.001515	
2.59476	  0.002723	  0.005148	  0.001493	
2.62802	  0.002746	  0.005086	  0.001471	
2.66129	  0.002793	  0.004997	  0.001451	
2.69456	  0.002852	  0.004902	  0.001433	
2.72782	  0.002906	  0.004817	  0.001420	
2.76109	  0.002945	  0.004758	  0.001415	
2.79435	  0.002963	  0.004726	  0.001423	
2.82762	  0.002958	  0.004720	  0.001445	
2.86089	  0.002931	  0.004737	  0.001478	
2.89415	  0.002888	  0.004779	  0.001518	
2.92742	  0.002839	  0.004846	  0.001556	
2.96069	  0.002794	  0.004931	  0.001585	
2.99395	  0.002762	  0.005016	  0.001598	
3.02722	  0.002744	  0.005075	  0.001595	
3.06048	  0.002732	  0.005092	  0.001578	
3.09375	  0.002720	  0.005064	  0.001555	
3.12702	  0.002703	  0.005002	  0.001531	
3.16028	  0.002682	  0.004923	  0.001510	
3.19355	  0.002662	  0.004842	  0.001494	
3.22681	  0.002648	  0.004772	  0.001484	
3.26008	  0.002639	  0.004729	  0.001481	
3.29335	  0.002639	  0.004724	  0.001487	
3.32661	  0.002648	  0.004759	  0.001503	
3.35988	  0.002666	  0.004823	  0.001524	
3.39315	  0.002687	  0.004893	  0.001544	
3.42641	  0.002703	  0.004949	  0.001558	
3.45968	  0.002707	  0.004980	  0.001562	
3.49294	  0.002707	  0.004989	  0.001554	
3.52621	  0.002717	  0.004991	  0.001537	
3.55948	  0.002751	  0.005001	  0.001515	
3.59274	  0.002807	  0.005021	  0.001494	
3.62601	  0.002867	  0.005042	  0.001479	
3.65927	  0.002906	  0.005052	  0.001472	
3.69254	  0.002906	  0.005042	  0.001478	
3.72581	  0.002867	  0.005016	  0.001503	
3.75907	  0.002805	  0.004986	  0.001551	
3.79234	  0.002741	  0.004965	  0.001625	
3.8256	  0.002694	  0.004965	  0.001728	
3.85887	  0.002676	  0.004997	  0.001855	
3.89214	  0.002684	  0.005069	  0.001993	
3.9254	  0.002709	  0.005181	  0.002117	
3.95867	  0.002738	  0.005322	  0.002186	
3.99194	  0.002757	  0.005466	  0.002137	
4.0252	  0.002758	  0.005567	  0.001881	
4.05847	  0.002732	  0.005576	  0.001307	
4.09173	  0.002678	  0.005449	  0.000304	
4.125	  0.002594	  0.005162	 -0.001219	
4.15827	  0.002483	  0.004717	 -0.003306	
4.19153	  0.002347	  0.004140	 -0.005916	
4.2248	  0.002194	  0.003471	 -0.008849	
4.25806	  0.002039	  0.002773	 -0.011641	
4.29133	  0.001911	  0.002147	 -0.013466	
4.3246	  0.001855	  0.001776	 -0.013085	
4.35786	  0.001935	  0.001938	 -0.008866	
4.39113	  0.002231	  0.003014	  0.001186	
4.4244	  0.002832	  0.005461	  0.019380	
4.45766	  0.003825	  0.009763	  0.048055	
4.49093	  0.005286	  0.016350	  0.088809	
4.52419	  0.007247	  0.025452	  0.141262	
4.55746	  0.009655	  0.036913	  0.202037	
4.59073	  0.012325	  0.050005	  0.264951	
4.62399	  0.014946	  0.063397	  0.322812	
4.65726	  0.017161	  0.075414	  0.370043	
4.69052	  0.018700	  0.084560	  0.404537	
4.72379	  0.019489	  0.090087	  0.427633	
4.75706	  0.019670	  0.092251	  0.442516	
4.79032	  0.019522	  0.092112	  0.452445	
4.82359	  0.019328	  0.091019	  0.459954	
4.85685	  0.019278	  0.090124	  0.466930	
4.89012	  0.019442	  0.090136	  0.474707	
4.92339	  0.019804	  0.091320	  0.483757	
4.95665	  0.020321	  0.093654	  0.493520	
4.98992	  0.020963	  0.097003	  0.502947	
5.02319	  0.021710	  0.101211	  0.511538	
5.05645	  0.022524	  0.106053	  0.520003	
5.08972	  0.023342	  0.111113	  0.529951	
5.12298	  0.024093	  0.115788	  0.542838	
5.15625	  0.024737	  0.119520	  0.559001	
5.18952	  0.025269	  0.122102	  0.577482	
5.22278	  0.025707	  0.123799	  0.596772	
5.25605	  0.026083	  0.125187	  0.615910	
5.28931	  0.026442	  0.126828	  0.635180	
5.32258	  0.026841	  0.129030	  0.655882	
5.35585	  0.027336	  0.131863	  0.679345	
5.38911	  0.027973	  0.135392	  0.705795	
5.42238	  0.028795	  0.139901	  0.733670	
5.45565	  0.029821	  0.145795	  0.759689	
5.48891	  0.030998	  0.153160	  0.779724	
5.52218	  0.032167	  0.161359	  0.790266	
5.55544	  0.033097	  0.169156	  0.789812	
5.58871	  0.033575	  0.175394	  0.779359	
5.62198	  0.033506	  0.179684	  0.761675	
5.65524	  0.032952	  0.182477	  0.739936	
5.68851	  0.032101	  0.184422	  0.716716	
5.72177	  0.031187	  0.185569	  0.693957	
5.75504	  0.030416	  0.185157	  0.673693	
5.78831	  0.029921	  0.182261	  0.658549	
5.82157	  0.029738	  0.176725	  0.651200	
5.85484	  0.029815	  0.169567	  0.652968	
5.8881	  0.030020	  0.162434	  0.662763	
5.92137	  0.030196	  0.156575	  0.677420	
5.95464	  0.030220	  0.152137	  0.693195	
5.9879	  0.030041	  0.148292	  0.707227	
6.02117	  0.029685	  0.144001	  0.718154	
6.05444	  0.029244	  0.138830	  0.726081	
6.0877	  0.028849	  0.133283	  0.732388	
6.12097	  0.028635	  0.128503	  0.739300	
6.15423	  0.028698	  0.125628	  0.748866	
6.1875	  0.029052	  0.125235	  0.761579	
6.22077	  0.029617	  0.127225	  0.775622	
6.25403	  0.030261	  0.131148	  0.787382	
6.2873	  0.030862	  0.136567	  0.792840	
6.32056	  0.031353	  0.143072	  0.788926	
6.35383	  0.031724	  0.149932	  0.774439	
6.3871	  0.032008	  0.155810	  0.750628	
6.42036	  0.032248	  0.159028	  0.721297	
6.45363	  0.032492	  0.158365	  0.691891	
6.4869	  0.032771	  0.153785	  0.667623	
6.52016	  0.033079	  0.146488	  0.651814	
6.55343	  0.033367	  0.138257	  0.645609	
6.58669	  0.033560	  0.130671	  0.648829	
6.61996	  0.033607	  0.124752	  0.660497	
6.65323	  0.033521	  0.121078	  0.678333	
6.68649	  0.033383	  0.119953	  0.698260	
6.71976	  0.033315	  0.121371	  0.715405	
6.75302	  0.033442	  0.124857	  0.726474	
6.78629	  0.033855	  0.129483	  0.731510	
6.81956	  0.034583	  0.134194	  0.733334	
6.85282	  0.035562	  0.138223	  0.735110	
6.88609	  0.036618	  0.141311	  0.738184	
6.91935	  0.037491	  0.143607	  0.741775	
6.95262	  0.037926	  0.145413	  0.744146	
6.98589	  0.037794	  0.146985	  0.743779	
7.01915	  0.037160	  0.148456	  0.739710	
7.05242	  0.036249	  0.149853	  0.731469	
7.08569	  0.035328	  0.151199	  0.719278	
7.11895	  0.034593	  0.152627	  0.704378	
7.15222	  0.034121	  0.154330	  0.688944	
7.18548	  0.033886	  0.156345	  0.675584	
7.21875	  0.033799	  0.158351	  0.666933	
7.25202	  0.033749	  0.159704	  0.665395	
7.28528	  0.033611	  0.159621	  0.672390	
7.31855	  0.033269	  0.157376	  0.687021	
7.35181	  0.032644	  0.152533	  0.705373	
7.38508	  0.031743	  0.145249	  0.721763	
7.41835	  0.030694	  0.136473	  0.731650	
7.45161	  0.029738	  0.127694	  0.734132	
7.48488	  0.029154	  0.120276	  0.731929	
7.51815	  0.029128	  0.114856	  0.728738	
7.55141	  0.029650	  0.111214	  0.726144	
7.58468	  0.030505	  0.108663	  0.722884	
7.61794	  0.031378	  0.106582	  0.717239	
7.65121	  0.032017	  0.104801	  0.710363	
7.68448	  0.032351	  0.103686	  0.707231	
7.71774	  0.032485	  0.103974	  0.714059	
7.75101	  0.032612	  0.106461	  0.734244	
7.78427	  0.032898	  0.111649	  0.766044	
7.81754	  0.033401	  0.119448	  0.803358	
7.85081	  0.034079	  0.129042	  0.838432	
7.88407	  0.034855	  0.139068	  0.864429	
7.91734	  0.035694	  0.148079	  0.876826	
7.9506	  0.036620	  0.155105	  0.873923	
7.98387	  0.037664	  0.159937	  0.856978	
8.01714	  0.038783	  0.162988	  0.829914	
8.0504	  0.039835	  0.164888	  0.798177	
8.08367	  0.040655	  0.166169	  0.766737	
8.11694	  0.041151	  0.167163	  0.738281	
8.1502	  0.041341	  0.168007	  0.713023	
8.18347	  0.041305	  0.168608	  0.690425	
8.21673	  0.041099	  0.168677	  0.671341	
8.25	  0.040737	  0.167884	  0.658485	
8.28327	  0.040244	  0.166057	  0.654613	
8.31653	  0.039716	  0.163271	  0.659988	
8.3498	  0.039329	  0.159846	  0.671457	
8.38306	  0.039270	  0.156352	  0.683938	
8.41633	  0.039658	  0.153588	  0.692928	
8.4496	  0.040472	  0.152389	  0.696071	
8.48286	  0.041519	  0.153236	  0.693190	
8.51613	  0.042467	  0.155935	  0.685750	
8.5494	  0.042949	  0.159678	  0.676632	
8.58266	  0.042713	  0.163478	  0.670038	
8.61593	  0.041740	  0.166587	  0.670742	
8.64919	  0.040225	  0.168548	  0.682565	
8.68246	  0.038476	  0.169030	  0.706668	
8.71573	  0.036810	  0.167858	  0.740581	
8.74899	  0.035506	  0.165346	  0.778677	
8.78226	  0.034794	  0.162554	  0.814187	
8.81552	  0.034809	  0.161071	  0.841763	
8.84879	  0.035511	  0.162409	  0.858819	
8.88206	  0.036664	  0.167342	  0.864713	
8.91532	  0.037903	  0.175451	  0.858921	
8.94859	  0.038876	  0.184984	  0.840309	
8.98185	  0.039351	  0.193237	  0.808220	
9.01512	  0.039249	  0.197617	  0.764118	
9.04839	  0.038631	  0.196953	  0.712101	
9.08165	  0.037659	  0.192132	  0.657909	
9.11492	  0.036538	  0.185462	  0.607213	
9.14819	  0.035458	  0.179254	  0.564077	
9.18145	  0.034540	  0.174783	  0.530047	
9.21472	  0.033802	  0.172228	  0.504062	
9.24798	  0.033150	  0.171160	  0.483165	
9.28125	  0.032370	  0.170751	  0.463577	
9.31452	  0.031172	  0.169569	  0.441506	
9.34778	  0.029279	  0.165570	  0.413514	
9.38105	  0.026559	  0.156775	  0.376923	
9.41431	  0.023092	  0.142281	  0.330629	
9.44758	  0.019165	  0.122825	  0.275988	
9.48085	  0.015167	  0.100465	  0.216915	
9.51411	  0.011475	  0.077708	  0.158828	
9.54738	  0.008351	  0.056705	  0.106878	
9.58065	  0.005914	  0.038888	  0.064473	
9.61391	  0.004149	  0.024950	  0.032754	
9.64718	  0.002961	  0.014981	  0.010998	
9.68044	  0.002220	  0.008595	 -0.002560	
9.71371	  0.001794	  0.005081	 -0.010011	
9.74698	  0.001572	  0.003578	 -0.013336	
